<?xml version="1.0" encoding="utf-8"?>
<!-- Generator: Adobe Illustrator 19.2.0, SVG Export Plug-In . SVG Version: 6.00 Build 0)  -->
<svg version="1.1" id="Ebene_1" xmlns="http://www.w3.org/2000/svg" xmlns:xlink="http://www.w3.org/1999/xlink" x="0px" y="0px"
	 viewBox="0 0 169.3 31" style="enable-background:new 0 0 169.3 31;" xml:space="preserve">
<metadata><?xpacket begin="﻿" id="W5M0MpCehiHzreSzNTczkc9d"?>
<x:xmpmeta xmlns:x="adobe:ns:meta/" x:xmptk="Adobe XMP Core 5.6-c111 79.158366, 2015/09/25-01:12:00">
   <rdf:RDF xmlns:rdf="http://www.w3.org/1999/02/22-rdf-syntax-ns#">
      <rdf:Description rdf:about=""/>
   </rdf:RDF>
</x:xmpmeta>


<?xpacket end="w"?></metadata>
<style type="text/css">
	.st0{fill:#16678D;}
	.st1{fill:#009542;}
</style>
<g>
	<path class="st0" d="M44.1,9.6c1.9,0,3.4,0.6,4.7,1.7c1.3-1.1,2.9-1.7,4.7-1.7c2.3,0,4.1,0.8,5.4,2.5c1,1.3,1.5,2.7,1.5,4.3v10.5
		c0,0.8-0.4,1.4-1.1,1.9c-0.7,0.4-1.4,0.4-2.2,0c-0.7-0.4-1.1-1.1-1.1-1.9V16.3c-0.2-1.2-0.6-1.9-1.3-2.2C54.5,14,54.1,14,53.5,14
		c-1,0-1.7,0.3-2,0.8c-0.3,0.5-0.4,1-0.5,1.6v4.5c0,0.8-0.4,1.4-1.1,1.9c-0.7,0.4-1.4,0.4-2.2,0c-0.7-0.4-1.1-1-1.1-1.9v-4.5
		c-0.2-1.2-0.6-1.9-1.3-2.2C45.1,14,44.7,14,44.1,14c-1,0-1.6,0.3-2,0.8c-0.3,0.6-0.5,1.1-0.6,1.6v10.5c0.1,0.8-0.3,1.4-1.1,1.9
		c-0.7,0.4-1.4,0.4-2.2,0c-0.7-0.4-1.1-1.1-1.1-1.9V16.3c0.2-3.4,1.7-5.5,4.6-6.4C42.5,9.7,43.3,9.6,44.1,9.6z"/>
	<path class="st0" d="M76,11.1c2.5,1.9,3.7,4.6,3.7,8.3c0,4-1.2,6.8-3.7,8.4c-1.4,0.9-2.9,1.3-4.6,1.3c-1.9,0-3.6-0.5-5.1-1.6
		c-2.1-1.7-3.1-4.4-3-8.1c0-3.9,1.2-6.6,3.7-8.3c1.3-0.9,2.8-1.4,4.4-1.4C73.1,9.8,74.6,10.2,76,11.1z M71.4,24.9c2.7,0,4-1.8,4-5.5
		c0-3.5-1.3-5.3-4-5.3c-0.7,0-1.4,0.2-2,0.7c-1.2,0.8-1.8,2.3-1.8,4.7v0.3C67.5,23.2,68.8,24.9,71.4,24.9z"/>
	<path class="st0" d="M87.2,28.3c-2.7-1.5-4-4.2-4-8.1V4.5c0-0.4,0.1-0.7,0.2-1c0.3-0.9,1-1.3,1.9-1.3c0.6,0,1.1,0.2,1.6,0.7
		c0.4,0.4,0.7,0.9,0.7,1.6v6.1c1-0.4,2.1-0.7,3.4-0.8c1.7,0,3.3,0.6,4.7,1.9c2.1,1.7,3.1,4.3,3.1,7.8c0,0.7-0.1,1.4-0.2,2
		c-0.4,3-1.6,5.2-3.6,6.5c-1.2,0.8-2.5,1.3-3.8,1.3H91C89.7,29.3,88.5,29,87.2,28.3z M87.6,21.8c0.3,2.1,1.3,3.1,3.1,3.1H91
		c0.5-0.1,1.1-0.3,1.6-0.7c1.3-0.9,1.9-2.5,1.9-4.8c0-2.3-0.6-3.9-1.9-4.7c-0.4-0.3-1-0.5-1.6-0.6c-0.6,0-1.2,0.2-1.8,0.5
		c-0.2,0.1-0.4,0.2-0.5,0.2c-0.8,0.5-1.1,1.4-1.1,2.7v2.7C87.6,20.8,87.6,21.3,87.6,21.8z"/>
	<path class="st0" d="M106.2,2.3c0.5,0.5,0.7,1.1,0.7,1.7v0.3c0,0.8-0.4,1.4-1.1,1.9c-0.8,0.4-1.5,0.4-2.2,0
		c-0.7-0.4-1.1-1.1-1.1-1.9V4.1c0-0.3,0.1-0.5,0.2-0.7c0.3-0.9,0.9-1.4,1.8-1.5C105.2,1.7,105.7,1.9,106.2,2.3z M106.3,10.4
		c0.4,0.4,0.7,1,0.7,1.6v15c0,0.8-0.4,1.4-1.1,1.9c-0.8,0.4-1.5,0.4-2.2,0c-0.7-0.4-1.1-1.1-1.1-1.9v-15c0-0.3,0.1-0.6,0.2-0.9
		c0.3-0.9,1-1.3,1.9-1.3C105.4,9.7,105.9,9.9,106.3,10.4z"/>
	<path class="st1" d="M125.8,23.1c-0.5,2.5-1.7,4.3-3.6,5.2c-1.3,0.7-2.6,0.9-3.9,0.8h-0.2h-0.1c-1.3-0.1-2.5-0.5-3.7-1.3l-0.7-0.4
		c-2.1-1.9-3.2-4.5-3.2-7.9c0-3.9,1.3-6.7,3.8-8.4c1-0.7,2.3-1.1,3.9-1.2c1.1,0,2.3,0.3,3.5,0.8V4.5c0-0.4,0.1-0.7,0.2-1
		c0.4-0.9,1-1.3,2-1.3c0.7,0,1.2,0.2,1.6,0.7c0.4,0.4,0.7,0.9,0.7,1.6v15.8C126.2,21.3,126.1,22.2,125.8,23.1z M121.7,16.1
		c-0.2-0.5-0.7-1-1.5-1.5c-0.5-0.2-1.1-0.4-1.9-0.5c-0.4,0-1,0.2-1.6,0.6c-1.2,0.8-1.8,2.4-1.8,4.8c0.1,2.1,0.7,3.7,1.8,4.7
		c0.5,0.3,1,0.5,1.6,0.7h0.3c0.5,0.1,1.1-0.1,1.6-0.4c1.1-0.5,1.7-1.9,1.6-4.2v-2.6C121.8,17,121.8,16.5,121.7,16.1z"/>
	<path class="st1" d="M133.8,2.3c0.5,0.5,0.7,1.1,0.7,1.7v0.3c0,0.8-0.4,1.4-1.1,1.9c-0.8,0.4-1.5,0.4-2.2,0
		c-0.7-0.4-1.1-1.1-1.1-1.9V4.1c0-0.3,0.1-0.5,0.2-0.7c0.3-0.9,0.9-1.4,1.8-1.5C132.8,1.7,133.4,1.9,133.8,2.3z M133.9,10.4
		c0.4,0.4,0.7,1,0.7,1.6v15c0,0.8-0.4,1.4-1.1,1.9c-0.8,0.4-1.5,0.4-2.2,0c-0.7-0.4-1.1-1.1-1.1-1.9v-15c0-0.3,0.1-0.6,0.2-0.9
		c0.3-0.9,1-1.3,1.9-1.3C133,9.7,133.5,9.9,133.9,10.4z"/>
	<path class="st1" d="M146.4,9.7c1.7,0,3.2,0.4,4.6,1.3c0.7,0.5,1.1,1.1,1.1,2c-0.1,0.9-0.5,1.5-1.3,1.9c-0.8,0.3-1.5,0.2-2.1-0.2
		c-0.6-0.3-1.3-0.5-2.2-0.5c-0.7,0-1.4,0.2-2,0.6c-1.2,0.8-1.8,2.4-1.8,4.7v0.1c0,2.5,0.6,4.1,1.7,4.8c0.6,0.4,1.3,0.6,2.1,0.6
		c0.9,0,1.6-0.2,2.2-0.6c0.7-0.5,1.4-0.6,2.1-0.2c0.8,0.4,1.2,1,1.3,1.9c0,0.9-0.4,1.5-1.1,1.9c-1.4,0.9-2.9,1.4-4.6,1.4
		c-1.7,0-3.2-0.4-4.4-1.3c-2.5-1.6-3.8-4.4-3.8-8.5c0-3.5,1.1-6.1,3.2-7.9C142.7,10.3,144.4,9.7,146.4,9.7z"/>
	<path class="st1" d="M161.7,9.6c1.6,0,2.9,0.3,4.1,0.9c1.9,1,2.6,2.2,2.4,3.5c-0.1,0.8-0.6,1.4-1.6,1.6c-0.8,0.2-1.5,0-2-0.6
		c-0.8-1.1-2-1.6-3.7-1.4c-0.1,0-0.2,0-0.2,0.1c-0.9,0.1-1.6,0.6-1.9,1.4c-0.2,0.4-0.1,0.9,0.2,1.4c0.7,0.4,1.7,0.6,3.2,0.6
		c0.9,0,1.5,0.1,2,0.2c1.7,0.2,3.2,1,4.3,2.6c0.7,1,1,2,1,3.2c0.1,1.7-0.7,3.2-2.1,4.3c-0.6,0.4-1.2,0.8-1.9,1
		c-2.9,0.9-5.5,0.9-7.7,0c-1.8-0.9-2.9-1.9-3.2-3.1c-0.2-0.9,0.1-1.7,1.1-2.2c0.9-0.5,1.7-0.5,2.4,0.1c0.1,0.1,0.2,0.1,0.2,0.2
		c0.9,1.2,2.6,1.6,4.9,1.2c0.9-0.1,1.6-0.4,1.9-1.1c0.2-0.4,0.2-0.8,0-1.2c-0.5-0.5-1.4-0.8-2.6-0.8c-2.7,0.1-4.7-0.4-6-1.6
		c-1.4-1.1-2-2.6-1.9-4.5c0-1.2,0.4-2.3,1.1-3.2c1.3-1.7,3.3-2.6,6-2.5H161.7z"/>
</g>
<path class="st0" d="M27.2,0H3.8C1.7,0,0,1.7,0,3.8v23.4C0,29.3,1.7,31,3.8,31h13.8c-1.5-3.3-4.4-3.6-4.4-3.6
	c-6.8-2-8.2-3.8-9.8-6.7c-1.6-2.8-0.2-2.5-0.2-2.5c0.6,1.6,2.2,1.9,6.1,0.9c4-1,6.9,1.3,6.9,1.3c1.3-4.7,6.6-6.1,8.4-6.3
	c1.8-0.3,3.3-3.6,3.3-3.6c0.5-1.2,0.9,2.1,0.5,4.1c-0.6,3.1-6,10-7.6,11.9c-0.8,0.9-1,2.8-0.9,4.5h7.2c2.1,0,3.8-1.7,3.8-3.8V3.8
	C31,1.7,29.3,0,27.2,0z"/>
</svg>
